<?xml version="1.0" encoding="UTF-8" standalone="no"?><!DOCTYPE svg PUBLIC "-//W3C//DTD SVG 1.1//EN" "http://www.w3.org/Graphics/SVG/1.1/DTD/svg11.dtd"><!-- Generated by graphviz version 2.40.1 (20161225.0304)
 --><!-- Title: Mir_0_3 Pages: 1 --><svg xmlns="http://www.w3.org/2000/svg" xmlns:xlink="http://www.w3.org/1999/xlink" width="1207pt" height="1705pt" viewBox="0.00 0.00 1207.00 1705.20">
<g id="graph0" class="graph" transform="scale(1 1) rotate(0) translate(4 1701.2)">
<title>Mir_0_3</title>
<polygon fill="#ffffff" stroke="transparent" points="-4,4 -4,-1701.2 1203,-1701.2 1203,4 -4,4"/>
<text text-anchor="start" x="427.3287" y="-512.2" font-family="Courier, monospace" font-size="14.00" fill="#000000">fn main() -&gt; ()</text>
<text text-anchor="start" x="427.3287" y="-495.4" font-family="Courier, monospace" font-size="14.00" fill="#000000">let mut _1: [i32; 3];</text>
<text text-anchor="start" x="427.3287" y="-478.6" font-family="Courier, monospace" font-size="14.00" fill="#000000">let mut _2: std::ops::Range&lt;usize&gt;;</text>
<text text-anchor="start" x="427.3287" y="-461.8" font-family="Courier, monospace" font-size="14.00" fill="#000000">let mut _3: std::ops::Range&lt;usize&gt;;</text>
<text text-anchor="start" x="427.3287" y="-445" font-family="Courier, monospace" font-size="14.00" fill="#000000">let mut _4: usize;</text>
<text text-anchor="start" x="427.3287" y="-428.2" font-family="Courier, monospace" font-size="14.00" fill="#000000">let mut _5: &amp;[i32];</text>
<text text-anchor="start" x="427.3287" y="-411.4" font-family="Courier, monospace" font-size="14.00" fill="#000000">let mut _6: &amp;[i32; 3];</text>
<text text-anchor="start" x="427.3287" y="-394.6" font-family="Courier, monospace" font-size="14.00" fill="#000000">let mut _7: std::ops::Range&lt;usize&gt;;</text>
<text text-anchor="start" x="427.3287" y="-377.8" font-family="Courier, monospace" font-size="14.00" fill="#000000">let mut _8: usize;</text>
<text text-anchor="start" x="427.3287" y="-361" font-family="Courier, monospace" font-size="14.00" fill="#000000">let mut _9: std::option::Option&lt;usize&gt;;</text>
<text text-anchor="start" x="427.3287" y="-344.2" font-family="Courier, monospace" font-size="14.00" fill="#000000">let mut _10: &amp;mut std::ops::Range&lt;usize&gt;;</text>
<text text-anchor="start" x="427.3287" y="-327.4" font-family="Courier, monospace" font-size="14.00" fill="#000000">let mut _11: &amp;mut std::ops::Range&lt;usize&gt;;</text>
<text text-anchor="start" x="427.3287" y="-310.6" font-family="Courier, monospace" font-size="14.00" fill="#000000">let mut _12: isize;</text>
<text text-anchor="start" x="427.3287" y="-293.8" font-family="Courier, monospace" font-size="14.00" fill="#000000">let _13: usize;</text>
<text text-anchor="start" x="427.3287" y="-277" font-family="Courier, monospace" font-size="14.00" fill="#000000">let mut _14: usize;</text>
<text text-anchor="start" x="427.3287" y="-260.2" font-family="Courier, monospace" font-size="14.00" fill="#000000">let _15: usize;</text>
<text text-anchor="start" x="427.3287" y="-243.4" font-family="Courier, monospace" font-size="14.00" fill="#000000">let _16: i32;</text>
<text text-anchor="start" x="427.3287" y="-226.6" font-family="Courier, monospace" font-size="14.00" fill="#000000">let _17: usize;</text>
<text text-anchor="start" x="427.3287" y="-209.8" font-family="Courier, monospace" font-size="14.00" fill="#000000">let mut _18: usize;</text>
<text text-anchor="start" x="427.3287" y="-193" font-family="Courier, monospace" font-size="14.00" fill="#000000">let mut _19: bool;</text>
<text text-anchor="start" x="427.3287" y="-176.2" font-family="Courier, monospace" font-size="14.00" fill="#000000">let mut _20: i32;</text>
<text text-anchor="start" x="427.3287" y="-159.4" font-family="Courier, monospace" font-size="14.00" fill="#000000">let mut _21: (i32, bool);</text>
<text text-anchor="start" x="427.3287" y="-142.6" font-family="Courier, monospace" font-size="14.00" fill="#000000">let _22: usize;</text>
<text text-anchor="start" x="427.3287" y="-125.8" font-family="Courier, monospace" font-size="14.00" fill="#000000">let mut _23: usize;</text>
<text text-anchor="start" x="427.3287" y="-109" font-family="Courier, monospace" font-size="14.00" fill="#000000">let mut _24: bool;</text>
<text text-anchor="start" x="427.3287" y="-92.2" font-family="Courier, monospace" font-size="14.00" fill="#000000">debug numbers =&gt; _1;</text>
<text text-anchor="start" x="427.3287" y="-75.4" font-family="Courier, monospace" font-size="14.00" fill="#000000">debug iter =&gt; _7;</text>
<text text-anchor="start" x="427.3287" y="-58.6" font-family="Courier, monospace" font-size="14.00" fill="#000000">debug __next =&gt; _8;</text>
<text text-anchor="start" x="427.3287" y="-41.8" font-family="Courier, monospace" font-size="14.00" fill="#000000">debug val =&gt; _13;</text>
<text text-anchor="start" x="427.3287" y="-25" font-family="Courier, monospace" font-size="14.00" fill="#000000">debug index =&gt; _15;</text>
<text text-anchor="start" x="427.3287" y="-8.2" font-family="Courier, monospace" font-size="14.00" fill="#000000">debug number =&gt; _16;</text>
<!-- bb0__0_3 -->
<g id="node1" class="node">
<title>bb0__0_3</title>
<polygon fill="#c0c0c0" stroke="transparent" points="640.5,-1671.2 640.5,-1693.2 1191.5,-1693.2 1191.5,-1671.2 640.5,-1671.2"/>
<polygon fill="none" stroke="#000000" points="640.5,-1671.2 640.5,-1693.2 1191.5,-1693.2 1191.5,-1671.2 640.5,-1671.2"/>
<text text-anchor="start" x="911.8007" y="-1677.6" font-family="Courier, monospace" font-size="14.00" fill="#000000">0</text>
<polygon fill="none" stroke="#000000" points="640.5,-1565.2 640.5,-1671.2 1191.5,-1671.2 1191.5,-1565.2 640.5,-1565.2"/>
<text text-anchor="start" x="643.5" y="-1655.6" font-family="Courier, monospace" font-size="14.00" fill="#000000">_1 = [const 1_i32, const 2_i32, const 3_i32]</text>
<text text-anchor="start" x="643.5" y="-1638.8" font-family="Courier, monospace" font-size="14.00" fill="#000000">_6 = &amp;_1</text>
<text text-anchor="start" x="643.5" y="-1622" font-family="Courier, monospace" font-size="14.00" fill="#000000">_5 = move _6 as &amp;[i32] (Pointer(Unsize))</text>
<text text-anchor="start" x="643.5" y="-1605.2" font-family="Courier, monospace" font-size="14.00" fill="#000000">_4 = Len((*_5))</text>
<text text-anchor="start" x="643.5" y="-1588.4" font-family="Courier, monospace" font-size="14.00" fill="#000000">(_3.0: usize) = const 0_usize</text>
<text text-anchor="start" x="643.5" y="-1571.6" font-family="Courier, monospace" font-size="14.00" fill="#000000">(_3.1: usize) = move _4</text>
<polygon fill="none" stroke="#000000" points="640.5,-1543.2 640.5,-1565.2 1191.5,-1565.2 1191.5,-1543.2 640.5,-1543.2"/>
<text text-anchor="start" x="643.0455" y="-1549.6" font-family="Courier, monospace" font-size="14.00" fill="#000000">_2 = &lt;std::ops::Range&lt;usize&gt; as IntoIterator&gt;::into_iter(move _3)</text>
</g>
<!-- bb1__0_3 -->
<g id="node2" class="node">
<title>bb1__0_3</title>
<polygon fill="#c0c0c0" stroke="transparent" points="862.5,-1460.4 862.5,-1482.4 968.5,-1482.4 968.5,-1460.4 862.5,-1460.4"/>
<polygon fill="none" stroke="#000000" points="862.5,-1460.4 862.5,-1482.4 968.5,-1482.4 968.5,-1460.4 862.5,-1460.4"/>
<text text-anchor="start" x="911.3007" y="-1466.8" font-family="Courier, monospace" font-size="14.00" fill="#000000">1</text>
<polygon fill="none" stroke="#000000" points="862.5,-1438.4 862.5,-1460.4 968.5,-1460.4 968.5,-1438.4 862.5,-1438.4"/>
<text text-anchor="start" x="865.5" y="-1444.8" font-family="Courier, monospace" font-size="14.00" fill="#000000">_7 = move _2</text>
<polygon fill="none" stroke="#000000" points="862.5,-1416.4 862.5,-1438.4 968.5,-1438.4 968.5,-1416.4 862.5,-1416.4"/>
<text text-anchor="start" x="865.5" y="-1422.8" font-family="Courier, monospace" font-size="14.00" fill="#000000">goto</text>
</g>
<!-- bb0__0_3&#45;&gt;bb1__0_3 -->
<g id="edge1" class="edge">
<title>bb0__0_3-&gt;bb1__0_3</title>
<path fill="none" stroke="#000000" d="M915.5,-1538.7428C915.5,-1524.4384 915.5,-1509.9441 915.5,-1496.9109"/>
<polygon fill="#000000" stroke="#000000" points="919.0001,-1496.8032 915.5,-1486.8033 912.0001,-1496.8033 919.0001,-1496.8032"/>
<text text-anchor="middle" x="940.6958" y="-1508.6" font-family="Courier, monospace" font-size="14.00" fill="#000000">return</text>
</g>
<!-- bb2__0_3 -->
<g id="node3" class="node">
<title>bb2__0_3</title>
<polygon fill="#c0c0c0" stroke="transparent" points="673.5,-1348.9 673.5,-1370.9 1157.5,-1370.9 1157.5,-1348.9 673.5,-1348.9"/>
<polygon fill="none" stroke="#000000" points="673.5,-1348.9 673.5,-1370.9 1157.5,-1370.9 1157.5,-1348.9 673.5,-1348.9"/>
<text text-anchor="start" x="911.3007" y="-1355.3" font-family="Courier, monospace" font-size="14.00" fill="#000000">2</text>
<polygon fill="none" stroke="#000000" points="673.5,-1309.9 673.5,-1348.9 1157.5,-1348.9 1157.5,-1309.9 673.5,-1309.9"/>
<text text-anchor="start" x="676.5" y="-1333.3" font-family="Courier, monospace" font-size="14.00" fill="#000000">_11 = &amp;mut _7</text>
<text text-anchor="start" x="676.5" y="-1316.5" font-family="Courier, monospace" font-size="14.00" fill="#000000">_10 = &amp;mut (*_11)</text>
<polygon fill="none" stroke="#000000" points="673.5,-1287.9 673.5,-1309.9 1157.5,-1309.9 1157.5,-1287.9 673.5,-1287.9"/>
<text text-anchor="start" x="676.1399" y="-1294.3" font-family="Courier, monospace" font-size="14.00" fill="#000000">_9 = &lt;std::ops::Range&lt;usize&gt; as Iterator&gt;::next(move _10)</text>
</g>
<!-- bb1__0_3&#45;&gt;bb2__0_3 -->
<g id="edge2" class="edge">
<title>bb1__0_3-&gt;bb2__0_3</title>
<path fill="none" stroke="#000000" d="M915.5,-1412.2445C915.5,-1403.7819 915.5,-1394.6101 915.5,-1385.5638"/>
<polygon fill="#000000" stroke="#000000" points="919.0001,-1385.448 915.5,-1375.448 912.0001,-1385.4481 919.0001,-1385.448"/>
</g>
<!-- bb3__0_3 -->
<g id="node4" class="node">
<title>bb3__0_3</title>
<polygon fill="#c0c0c0" stroke="transparent" points="254.5,-1205.6 254.5,-1227.6 444.5,-1227.6 444.5,-1205.6 254.5,-1205.6"/>
<polygon fill="none" stroke="#000000" points="254.5,-1205.6 254.5,-1227.6 444.5,-1227.6 444.5,-1205.6 254.5,-1205.6"/>
<text text-anchor="start" x="345.3007" y="-1212" font-family="Courier, monospace" font-size="14.00" fill="#000000">3</text>
<polygon fill="none" stroke="#000000" points="254.5,-1183.6 254.5,-1205.6 444.5,-1205.6 444.5,-1183.6 254.5,-1183.6"/>
<text text-anchor="start" x="257.5" y="-1190" font-family="Courier, monospace" font-size="14.00" fill="#000000">_12 = discriminant(_9)</text>
<polygon fill="none" stroke="#000000" points="254.5,-1161.6 254.5,-1183.6 444.5,-1183.6 444.5,-1161.6 254.5,-1161.6"/>
<text text-anchor="start" x="257.5" y="-1168" font-family="Courier, monospace" font-size="14.00" fill="#000000">switchInt(move _12)</text>
</g>
<!-- bb2__0_3&#45;&gt;bb3__0_3 -->
<g id="edge3" class="edge">
<title>bb2__0_3-&gt;bb3__0_3</title>
<path fill="none" stroke="#000000" d="M725.0616,-1284.3765C637.9574,-1263.5546 537.7066,-1239.59 462.7026,-1221.6606"/>
<polygon fill="#000000" stroke="#000000" points="463.2959,-1218.2039 452.7561,-1219.283 461.6683,-1225.0121 463.2959,-1218.2039"/>
<text text-anchor="middle" x="674.6958" y="-1253.8" font-family="Courier, monospace" font-size="14.00" fill="#000000">return</text>
</g>
<!-- bb4__0_3 -->
<g id="node5" class="node">
<title>bb4__0_3</title>
<polygon fill="#c0c0c0" stroke="transparent" points="8.5,-1028.3 8.5,-1050.3 123.5,-1050.3 123.5,-1028.3 8.5,-1028.3"/>
<polygon fill="none" stroke="#000000" points="8.5,-1028.3 8.5,-1050.3 123.5,-1050.3 123.5,-1028.3 8.5,-1028.3"/>
<text text-anchor="start" x="61.8007" y="-1034.7" font-family="Courier, monospace" font-size="14.00" fill="#000000">4</text>
<polygon fill="none" stroke="#000000" points="8.5,-1006.3 8.5,-1028.3 123.5,-1028.3 123.5,-1006.3 8.5,-1006.3"/>
<text text-anchor="start" x="11.5" y="-1012.7" font-family="Courier, monospace" font-size="14.00" fill="#000000">_0 = const ()</text>
<polygon fill="none" stroke="#000000" points="8.5,-984.3 8.5,-1006.3 123.5,-1006.3 123.5,-984.3 8.5,-984.3"/>
<text text-anchor="start" x="11.5" y="-990.7" font-family="Courier, monospace" font-size="14.00" fill="#000000">return</text>
</g>
<!-- bb3__0_3&#45;&gt;bb4__0_3 -->
<g id="edge4" class="edge">
<title>bb3__0_3-&gt;bb4__0_3</title>
<path fill="none" stroke="#000000" d="M246.4366,-1161.1563C210.9744,-1146.9196 172.2381,-1128.1354 140.5,-1104.8 124.587,-1093.1 109.794,-1077.412 97.6235,-1062.5515"/>
<polygon fill="#000000" stroke="#000000" points="100.1089,-1060.0539 91.1415,-1054.4114 94.6329,-1064.4145 100.1089,-1060.0539"/>
<text text-anchor="middle" x="223.8951" y="-1127" font-family="Courier, monospace" font-size="14.00" fill="#000000">0_isize</text>
</g>
<!-- bb5__0_3 -->
<g id="node6" class="node">
<title>bb5__0_3</title>
<polygon fill="#c0c0c0" stroke="transparent" points="157.5,-1017.3 157.5,-1039.3 255.5,-1039.3 255.5,-1017.3 157.5,-1017.3"/>
<polygon fill="none" stroke="#000000" points="157.5,-1017.3 157.5,-1039.3 255.5,-1039.3 255.5,-1017.3 157.5,-1017.3"/>
<text text-anchor="start" x="202.3007" y="-1023.7" font-family="Courier, monospace" font-size="14.00" fill="#000000">5</text>
<polygon fill="none" stroke="#000000" points="157.5,-995.3 157.5,-1017.3 255.5,-1017.3 255.5,-995.3 157.5,-995.3"/>
<text text-anchor="start" x="160.3077" y="-1001.7" font-family="Courier, monospace" font-size="14.00" fill="#000000">unreachable</text>
</g>
<!-- bb3__0_3&#45;&gt;bb5__0_3 -->
<g id="edge6" class="edge">
<title>bb3__0_3-&gt;bb5__0_3</title>
<path fill="none" stroke="#000000" d="M316.7505,-1157.4657C302.8693,-1141.4559 286.6612,-1122.4009 272.5,-1104.8 258.686,-1087.6307 243.8632,-1068.0882 231.7715,-1051.8337"/>
<polygon fill="#000000" stroke="#000000" points="234.4829,-1049.614 225.7171,-1043.6633 228.8588,-1053.7816 234.4829,-1049.614"/>
<text text-anchor="middle" x="337.2937" y="-1127" font-family="Courier, monospace" font-size="14.00" fill="#000000">otherwise</text>
</g>
<!-- bb6__0_3 -->
<g id="node7" class="node">
<title>bb6__0_3</title>
<polygon fill="#c0c0c0" stroke="transparent" points="289.5,-1078.3 289.5,-1100.3 1067.5,-1100.3 1067.5,-1078.3 289.5,-1078.3"/>
<polygon fill="none" stroke="#000000" points="289.5,-1078.3 289.5,-1100.3 1067.5,-1100.3 1067.5,-1078.3 289.5,-1078.3"/>
<text text-anchor="start" x="674.3007" y="-1084.7" font-family="Courier, monospace" font-size="14.00" fill="#000000">6</text>
<polygon fill="none" stroke="#000000" points="289.5,-955.3 289.5,-1078.3 1067.5,-1078.3 1067.5,-955.3 289.5,-955.3"/>
<text text-anchor="start" x="292.5" y="-1062.7" font-family="Courier, monospace" font-size="14.00" fill="#000000">_13 = ((_9 as Some).0: usize)</text>
<text text-anchor="start" x="292.5" y="-1045.9" font-family="Courier, monospace" font-size="14.00" fill="#000000">_14 = _13</text>
<text text-anchor="start" x="292.5" y="-1029.1" font-family="Courier, monospace" font-size="14.00" fill="#000000">_8 = move _14</text>
<text text-anchor="start" x="292.5" y="-1012.3" font-family="Courier, monospace" font-size="14.00" fill="#000000">_15 = _8</text>
<text text-anchor="start" x="292.5" y="-995.5" font-family="Courier, monospace" font-size="14.00" fill="#000000">_17 = _15</text>
<text text-anchor="start" x="292.5" y="-978.7" font-family="Courier, monospace" font-size="14.00" fill="#000000">_18 = const 3_usize</text>
<text text-anchor="start" x="292.5" y="-961.9" font-family="Courier, monospace" font-size="14.00" fill="#000000">_19 = Lt(_17, _18)</text>
<polygon fill="none" stroke="#000000" points="289.5,-933.3 289.5,-955.3 1067.5,-955.3 1067.5,-933.3 289.5,-933.3"/>
<text text-anchor="start" x="292.1644" y="-939.7" font-family="Courier, monospace" font-size="14.00" fill="#000000">assert(move _19, "index out of bounds: the length is {} but the index is {}", move _18, _17)</text>
</g>
<!-- bb3__0_3&#45;&gt;bb6__0_3 -->
<g id="edge5" class="edge">
<title>bb3__0_3-&gt;bb6__0_3</title>
<path fill="none" stroke="#000000" d="M418.4692,-1157.4321C444.6484,-1143.324 475.7675,-1126.5537 507.2178,-1109.605"/>
<polygon fill="#000000" stroke="#000000" points="508.9507,-1112.647 516.0933,-1104.8219 505.6298,-1106.4849 508.9507,-1112.647"/>
<text text-anchor="middle" x="504.8951" y="-1127" font-family="Courier, monospace" font-size="14.00" fill="#000000">1_isize</text>
</g>
<!-- bb7__0_3 -->
<g id="node8" class="node">
<title>bb7__0_3</title>
<polygon fill="#c0c0c0" stroke="transparent" points="213.5,-866.8 213.5,-888.8 1092.5,-888.8 1092.5,-866.8 213.5,-866.8"/>
<polygon fill="none" stroke="#000000" points="213.5,-866.8 213.5,-888.8 1092.5,-888.8 1092.5,-866.8 213.5,-866.8"/>
<text text-anchor="start" x="648.8007" y="-873.2" font-family="Courier, monospace" font-size="14.00" fill="#000000">7</text>
<polygon fill="none" stroke="#000000" points="213.5,-810.8 213.5,-866.8 1092.5,-866.8 1092.5,-810.8 213.5,-810.8"/>
<text text-anchor="start" x="216.5" y="-851.2" font-family="Courier, monospace" font-size="14.00" fill="#000000">_16 = _1[_17]</text>
<text text-anchor="start" x="216.5" y="-834.4" font-family="Courier, monospace" font-size="14.00" fill="#000000">_20 = _16</text>
<text text-anchor="start" x="216.5" y="-817.6" font-family="Courier, monospace" font-size="14.00" fill="#000000">_21 = CheckedMul(_20, const 2_i32)</text>
<polygon fill="none" stroke="#000000" points="213.5,-788.8 213.5,-810.8 1092.5,-810.8 1092.5,-788.8 213.5,-788.8"/>
<text text-anchor="start" x="216.2728" y="-795.2" font-family="Courier, monospace" font-size="14.00" fill="#000000">assert(!move (_21.1: bool), "attempt to compute `{} * {}`, which would overflow", move _20, const 2_i32)</text>
</g>
<!-- bb6__0_3&#45;&gt;bb7__0_3 -->
<g id="edge7" class="edge">
<title>bb6__0_3-&gt;bb7__0_3</title>
<path fill="none" stroke="#000000" d="M665.7285,-929.6188C664.4178,-920.6202 663.104,-911.6003 661.8404,-902.9252"/>
<polygon fill="#000000" stroke="#000000" points="665.2882,-902.3128 660.3833,-892.9218 658.3613,-903.3219 665.2882,-902.3128"/>
</g>
<!-- bb8__0_3 -->
<g id="node9" class="node">
<title>bb8__0_3</title>
<polygon fill="#c0c0c0" stroke="transparent" points="301.5,-721.8 301.5,-743.8 1079.5,-743.8 1079.5,-721.8 301.5,-721.8"/>
<polygon fill="none" stroke="#000000" points="301.5,-721.8 301.5,-743.8 1079.5,-743.8 1079.5,-721.8 301.5,-721.8"/>
<text text-anchor="start" x="686.3007" y="-728.2" font-family="Courier, monospace" font-size="14.00" fill="#000000">8</text>
<polygon fill="none" stroke="#000000" points="301.5,-665.8 301.5,-721.8 1079.5,-721.8 1079.5,-665.8 301.5,-665.8"/>
<text text-anchor="start" x="304.5" y="-706.2" font-family="Courier, monospace" font-size="14.00" fill="#000000">_22 = _15</text>
<text text-anchor="start" x="304.5" y="-689.4" font-family="Courier, monospace" font-size="14.00" fill="#000000">_23 = const 3_usize</text>
<text text-anchor="start" x="304.5" y="-672.6" font-family="Courier, monospace" font-size="14.00" fill="#000000">_24 = Lt(_22, _23)</text>
<polygon fill="none" stroke="#000000" points="301.5,-643.8 301.5,-665.8 1079.5,-665.8 1079.5,-643.8 301.5,-643.8"/>
<text text-anchor="start" x="304.1644" y="-650.2" font-family="Courier, monospace" font-size="14.00" fill="#000000">assert(move _24, "index out of bounds: the length is {} but the index is {}", move _23, _22)</text>
</g>
<!-- bb7__0_3&#45;&gt;bb8__0_3 -->
<g id="edge8" class="edge">
<title>bb7__0_3-&gt;bb8__0_3</title>
<path fill="none" stroke="#000000" d="M666.7579,-784.3948C669.0225,-775.7536 671.3831,-766.746 673.6995,-757.9071"/>
<polygon fill="#000000" stroke="#000000" points="677.1391,-758.5885 676.2886,-748.0279 670.3677,-756.8139 677.1391,-758.5885"/>
</g>
<!-- bb9__0_3 -->
<g id="node10" class="node">
<title>bb9__0_3</title>
<polygon fill="#c0c0c0" stroke="transparent" points="793.5,-576.8 793.5,-598.8 1025.5,-598.8 1025.5,-576.8 793.5,-576.8"/>
<polygon fill="none" stroke="#000000" points="793.5,-576.8 793.5,-598.8 1025.5,-598.8 1025.5,-576.8 793.5,-576.8"/>
<text text-anchor="start" x="905.3007" y="-583.2" font-family="Courier, monospace" font-size="14.00" fill="#000000">9</text>
<polygon fill="none" stroke="#000000" points="793.5,-554.8 793.5,-576.8 1025.5,-576.8 1025.5,-554.8 793.5,-554.8"/>
<text text-anchor="start" x="796.5" y="-561.2" font-family="Courier, monospace" font-size="14.00" fill="#000000">_1[_22] = move (_21.0: i32)</text>
<polygon fill="none" stroke="#000000" points="793.5,-532.8 793.5,-554.8 1025.5,-554.8 1025.5,-532.8 793.5,-532.8"/>
<text text-anchor="start" x="796.5" y="-539.2" font-family="Courier, monospace" font-size="14.00" fill="#000000">goto</text>
</g>
<!-- bb8__0_3&#45;&gt;bb9__0_3 -->
<g id="edge9" class="edge">
<title>bb8__0_3-&gt;bb9__0_3</title>
<path fill="none" stroke="#000000" d="M783.0583,-639.702C801.1509,-629.1273 819.8759,-618.183 837.1927,-608.0618"/>
<polygon fill="#000000" stroke="#000000" points="839.2417,-610.9183 846.109,-602.8504 835.7094,-604.8748 839.2417,-610.9183"/>
</g>
<!-- bb9__0_3&#45;&gt;bb2__0_3 -->
<g id="edge10" class="edge">
<title>bb9__0_3-&gt;bb2__0_3</title>
<path fill="none" stroke="#000000" d="M1033.7171,-592.6982C1083.146,-611.3771 1128.5,-642.4949 1128.5,-693.8 1128.5,-1194.6 1128.5,-1194.6 1128.5,-1194.6 1128.5,-1231.5407 1105.3908,-1258.8252 1074.3961,-1278.8069"/>
<polygon fill="#000000" stroke="#000000" points="1072.1775,-1276.0601 1065.4575,-1284.2511 1075.8187,-1282.0385 1072.1775,-1276.0601"/>
</g>
</g>
</svg>